<svg width="193" height="38" viewBox="0 0 193 38" fill="none" xmlns="http://www.w3.org/2000/svg">
    <path fill-rule="evenodd" clip-rule="evenodd" d="M19.128 6.62c3.64 3.49 11.39 3.472 15.216 0 2.015-1.827 3.488-.241 4.762.125 1.273.365 1.239.609 5.302 1.167 4.064.558 5.97.645 6.967 3.435.758 2.119 2.098 10.081 2.098 10.081l-4.508-6.59s-3.973.439-10.615 9.468c-2.613 3.551-4.916 5.06-7.42 6.649-1.059.672-2.465 1.224-3.567 1.302-1.407.1-2.616-.36-4.052-1.138-4.042-2.19-6.136-5.027-8.01-7.467-6.208-8.074-10.793-8.814-10.793-8.814L0 21.428s1.34-7.962 2.098-10.08C3.095 8.557 5 8.47 9.064 7.911c4.064-.558 4.03-.802 5.303-1.167 1.273-.366 2.791-2.013 4.761-.124z" fill="#61948A"/>
    <path fill-rule="evenodd" clip-rule="evenodd" d="M19.622 7.422c3.59 3.033 11.232 3.017 15.006 0 1.986-1.588 3.44-.21 4.695.108 1.256.317 1.222.53 5.23 1.014 4.007.486 5.886.561 6.87 2.986.747 1.841 2.069 8.761 2.069 8.761l-4.445-5.727s-3.688.355-10.24 8.202c-4.798 5.615-7.917 7.623-9.74 8.3-1.063.396-2.757.39-3.722.059-1.797-.617-4.959-2.573-9.903-8.36-6.551-7.846-10.239-8.2-10.239-8.2L.758 20.29s1.321-6.92 2.068-8.761c.984-2.425 2.863-2.5 6.87-2.986 4.008-.485 3.974-.697 5.23-1.014 1.256-.318 2.753-1.75 4.696-.108z" fill="#fff"/>
    <path fill-rule="evenodd" clip-rule="evenodd" d="M2.914 15.298s.983-2.128 1.245-2.816c.262-.689.85-1.06 3.416-1.227 2.565-.166 7.113-.698 7.113-.698l-2.452 5.961s-4.908-4.212-6.367-4.294c-1.46-.08-2.955 3.074-2.955 3.074z" fill="#000"/>
    <path fill-rule="evenodd" clip-rule="evenodd" d="M5.262 12.357a.666.666 0 0 1 .218-.14c.59-.203 6.442.965 7.988 1.28l-1.243 3.022s-4.908-4.213-6.367-4.294c-.2-.011-.4.038-.596.132z" fill="#264841"/>
    <path fill-rule="evenodd" clip-rule="evenodd" d="M6.477 12.4c-.243-.103-.453-.166-.62-.175-.198-.011-.398.038-.595.132a.666.666 0 0 1 .218-.14c.59-.203 6.442.965 7.988 1.28l-.133.324c-1.363-.299-5.932-1.295-6.782-1.41l-.076-.01z" fill="#7CE5CF"/>
    <path fill-rule="evenodd" clip-rule="evenodd" d="M51.746 15.298s-.983-2.128-1.245-2.816c-.262-.689-.85-1.06-3.416-1.227-2.565-.166-7.113-.698-7.113-.698l2.452 5.961s4.908-4.212 6.367-4.294c1.46-.08 2.955 3.074 2.955 3.074z" fill="#000"/>
    <path fill-rule="evenodd" clip-rule="evenodd" d="M49.398 12.357a.665.665 0 0 0-.218-.14c-.59-.203-6.442.965-7.988 1.28l1.243 3.022s4.908-4.213 6.367-4.294c.2-.011.4.038.596.132z" fill="#264841"/>
    <path fill-rule="evenodd" clip-rule="evenodd" d="M48.183 12.4c.243-.103.453-.166.62-.175.199-.011.399.038.595.132a.665.665 0 0 0-.218-.14c-.59-.203-6.442.965-7.988 1.28l.134.324c1.362-.299 5.931-1.295 6.782-1.41l.075-.01z" fill="#7CE5CF"/>
    <path fill-rule="evenodd" clip-rule="evenodd" d="m22.985 10.74 1.064 6.746s-.782-1.655-1.877-2.357c-1.326-1.068-3.607-.15-5.474-1.58-.719-.394-1.078-1.07-1.253-1.713 1.116-1.888 2.168-2.273 2.168-2.273l5.372 1.177zm8.28 0 5.372-1.177s1.053.385 2.168 2.273c-.175.643-.534 1.32-1.253 1.712-1.867 1.431-4.148.513-5.474 1.581-1.095.702-1.877 2.357-1.877 2.357-.582-2.288-.32-4.54 1.065-6.746z" fill="#264841"/>
    <g filter="url(#a)">
        <path fill-rule="evenodd" clip-rule="evenodd" d="M16.656 14.097s.582 1.084 3.004 1.145c2.423.061 3.128 2.327 3.128 2.327s-.495-.974-2.983-.72c-2.488.256-3.149-2.752-3.149-2.752zm21.015 0s-.581 1.084-3.004 1.145c-2.423.061-3.128 2.327-3.128 2.327s.495-.974 2.983-.72c2.489.256 3.149-2.752 3.149-2.752z" fill="#7CE5CF"/>
    </g>
    <path fill-rule="evenodd" clip-rule="evenodd" d="M15.072 12.488c.32.531.8 1.37 1.077 2.035.44 1.056.944 2.63 1.999 2.993 1.054.363 2.58.051 3.567.93.825.732.7 1.491 1.01 1.903.313.411 2 2.2 2 2.2h4.768s1.687-1.789 1.999-2.2c.311-.412.186-1.17 1.01-1.904.988-.878 2.513-.566 3.568-.93 1.055-.363 1.559-1.936 1.998-2.992.277-.665.758-1.504 1.077-2.035l.052.104c1.253 2.549 2.17 3.85.067 7.642-1.138 1.54-4.697 5.794-7.222 7.713-1.34 1.018-2.444 1.6-3.265 1.932-1.067.431-2.341.43-3.531-.082-.798-.343-1.834-.91-3.07-1.85-2.525-1.92-6.084-6.174-7.222-7.713-2.103-3.793-1.186-5.093.066-7.642a8.49 8.49 0 0 1 .052-.104zm6.989-1.95 2.01.44c2.073.312 4.102.331 6.076 0l1.675-.367c-.357.615-1.03 1.852-1.164 2.647-.434 2.572-.32 6.36-.32 6.36l-1.387 1.564h-3.976l-1.387-1.563s.113-3.789-.32-6.361c-.14-.828-.864-2.135-1.207-2.72z" fill="#000"/>
    <path stroke="#7CE5CF" d="M63.992 0v38"/>
    <path d="M88.462 26.28h-7.86L79.342 30h-5.37l7.62-21.06h5.94L95.152 30h-5.43l-1.26-3.72zm-1.32-3.96-2.61-7.71-2.58 7.71h5.19zm18.219-13.38c2.22 0 4.16.44 5.82 1.32 1.66.88 2.94 2.12 3.84 3.72.92 1.58 1.38 3.41 1.38 5.49 0 2.06-.46 3.89-1.38 5.49-.9 1.6-2.19 2.84-3.87 3.72-1.66.88-3.59 1.32-5.79 1.32h-7.89V8.94h7.89zm-.33 16.62c1.94 0 3.45-.53 4.53-1.59s1.62-2.56 1.62-4.5-.54-3.45-1.62-4.53-2.59-1.62-4.53-1.62h-2.43v12.24h2.43zm27.347.72h-7.86l-1.26 3.72h-5.37l7.62-21.06h5.94l7.62 21.06h-5.43l-1.26-3.72zm-1.32-3.96-2.61-7.71-2.58 7.71h5.19zM158.277 30h-2.73l-10.98-16.65V30h-2.73V9.06h2.73l10.98 16.62V9.06h2.73V30zm16.474-20.91v2.22h-9.09v7.05h7.38v2.22h-7.38V30h-2.73V9.09h11.82zm16.167 0v2.22h-5.7V30h-2.73V11.31h-5.73V9.09h14.16z" fill="#7CE5CF"/>
    <defs>
        <filter id="a" x="16.186" y="13.626" width="21.957" height="4.414" filterUnits="userSpaceOnUse" color-interpolation-filters="sRGB">
            <feFlood flood-opacity="0" result="BackgroundImageFix"/>
            <feBlend in="SourceGraphic" in2="BackgroundImageFix" result="shape"/>
            <feGaussianBlur stdDeviation=".235" result="effect1_foregroundBlur_478_13953"/>
        </filter>
    </defs>
</svg>
