<svg version="1.1" id="Layer_1" xmlns="http://www.w3.org/2000/svg" xmlns:xlink="http://www.w3.org/1999/xlink" x="0px" y="0px"
	 width="100%" viewBox="0 0 3000 3000" enable-background="new 0 0 3000 3000" xml:space="preserve">
<path fill="#FFFFFF" opacity="1.000000" stroke="none" 
	d="
M1388.000000,3002.000000 
	C925.333435,3002.000000 463.666840,3002.000000 2.000186,3002.000000 
	C2.000124,2002.000244 2.000124,1002.000549 2.000062,2.000588 
	C1001.999573,2.000392 2001.999146,2.000392 3001.999023,2.000196 
	C3001.999512,1001.999329 3001.999512,2001.998657 3001.999756,3001.999023 
	C2464.333252,3002.000000 1926.666626,3002.000000 1388.000000,3002.000000 
M1062.230225,2076.106689 
	C1055.314331,2075.447510 1048.394775,2074.189453 1041.483276,2074.232910 
	C1011.592285,2074.421143 983.836792,2082.378174 958.496582,2098.331543 
	C952.753235,2101.947510 947.320740,2106.056885 941.030396,2110.436523 
	C942.992493,2111.972168 943.678345,2112.817627 944.558594,2113.152832 
	C972.443054,2123.773438 1001.404541,2126.546143 1030.777344,2123.238525 
	C1054.659302,2120.548828 1077.563965,2113.827881 1098.220459,2100.931641 
	C1101.996094,2098.574463 1105.278809,2098.453125 1109.280762,2100.627686 
	C1129.460571,2111.593018 1150.620117,2120.370361 1171.982544,2129.504883 
	C1167.928345,2134.106445 1163.764648,2138.617676 1159.862549,2143.344971 
	C1157.666016,2146.005859 1155.901367,2149.023193 1152.103027,2152.222900 
	C1012.242371,2152.222900 872.381653,2152.222900 732.323486,2152.222900 
	C732.323486,2166.220703 732.323486,2178.997314 732.323486,2191.629883 
	C1260.332275,2191.629883 1787.671143,2191.629883 2315.169434,2191.629883 
	C2315.169434,2178.394775 2315.169434,2165.885742 2315.169434,2152.304932 
	C2310.783203,2152.304932 2306.870850,2152.305176 2302.958496,2152.305176 
	C2172.654297,2152.305176 2042.350098,2152.309570 1912.045898,2152.282715 
	C1908.061523,2152.281982 1904.077271,2151.953369 1900.063477,2150.411621 
	C1897.369629,2146.391357 1894.675903,2142.371338 1893.566162,2138.095947 
	C1929.505615,2129.098145 1964.137695,2116.499756 1997.000366,2099.392090 
	C2003.782959,2095.861572 2008.916870,2095.927979 2015.413574,2099.664551 
	C2040.118774,2113.873779 2067.330078,2120.486816 2095.413086,2121.429443 
	C2111.445801,2121.967285 2127.666260,2118.523682 2143.717041,2116.265869 
	C2152.100098,2115.086426 2160.239258,2112.433594 2168.882324,2107.743164 
	C2150.839355,2092.278076 2131.052490,2082.601074 2109.557861,2076.366455 
	C2088.032959,2070.123047 2066.019531,2070.707031 2042.767944,2073.895996 
	C2057.688232,2062.627197 2071.341309,2052.141602 2085.262207,2042.024536 
	C2086.972168,2040.781982 2090.271484,2040.865479 2092.567871,2041.426025 
	C2112.319580,2046.246582 2131.937012,2048.793213 2152.577393,2046.531372 
	C2185.135010,2042.963257 2213.321533,2030.415405 2238.722900,2010.512573 
	C2241.955322,2007.979736 2244.929199,2005.116455 2249.397461,2001.201904 
	C2208.439697,1986.241333 2169.581055,1986.272705 2129.718262,2002.182861 
	C2130.747070,1999.445435 2130.889893,1998.395386 2131.451172,1997.668457 
	C2146.270752,1978.475830 2161.258301,1959.410400 2175.876709,1940.066162 
	C2178.558838,1936.516846 2181.448730,1935.372803 2185.234375,1936.333496 
	C2199.511230,1939.955933 2213.829102,1938.056763 2227.771729,1935.481689 
	C2270.531006,1927.584473 2303.136230,1903.768555 2328.177979,1868.885864 
	C2329.189453,1867.476807 2329.381592,1865.479370 2330.242432,1862.894531 
	C2320.505615,1861.910889 2311.682861,1860.325195 2302.858643,1860.318848 
	C2293.616943,1860.312134 2284.263184,1861.205811 2275.163574,1862.845947 
	C2266.378418,1864.429199 2257.621826,1866.854736 2249.280518,1870.033325 
	C2240.605957,1873.338989 2232.100830,1877.420898 2224.158203,1882.217407 
	C2216.836426,1886.639160 2210.359619,1892.459839 2201.856689,1898.921143 
	C2212.924805,1873.314941 2223.019287,1849.960938 2233.118896,1826.595703 
	C2264.367188,1820.851685 2289.713135,1805.257324 2310.639648,1782.129028 
	C2329.433594,1761.357422 2352.744873,1714.643066 2348.739990,1700.647827 
	C2328.916992,1704.453979 2310.841797,1712.486572 2293.971191,1723.380981 
	C2276.965576,1734.362427 2263.345459,1748.997192 2250.744873,1764.880249 
	C2250.095459,1762.352539 2249.937256,1760.336670 2250.322021,1758.430420 
	C2256.176025,1729.427490 2260.307617,1700.229614 2260.077393,1670.565308 
	C2260.041992,1666.000488 2261.548340,1663.281372 2265.692383,1661.123047 
	C2271.263428,1658.221436 2276.796631,1654.964233 2281.641357,1650.999023 
	C2307.540283,1629.803345 2324.113037,1602.451660 2331.721191,1570.130615 
	C2335.728516,1553.106323 2337.511230,1535.527588 2339.711182,1518.125000 
	C2340.514893,1511.766724 2339.619629,1505.193604 2339.457764,1496.481445 
	C2297.094238,1523.422363 2271.803467,1559.553101 2260.714111,1608.466797 
	C2259.551758,1602.016968 2258.487305,1598.147461 2258.214844,1594.223022 
	C2257.364502,1581.974854 2256.753174,1569.708740 2256.159668,1557.444336 
	C2254.914062,1531.695312 2246.483643,1507.884155 2235.237793,1485.186646 
	C2221.331055,1457.118408 2201.259766,1433.593140 2177.762695,1412.979614 
	C2176.238037,1411.641968 2174.434082,1410.622681 2171.875732,1408.838867 
	C2171.806152,1428.217163 2174.540527,1445.901123 2178.136963,1463.446167 
	C2184.259521,1493.312866 2194.088379,1521.731323 2211.498779,1547.153320 
	C2221.522461,1561.789917 2233.027100,1574.974731 2247.052002,1585.929077 
	C2249.016602,1587.463745 2251.297363,1589.665039 2251.727295,1591.887573 
	C2252.917969,1598.042358 2253.598145,1604.359863 2253.782715,1610.633545 
	C2254.405762,1631.817627 2255.041992,1653.009644 2254.118408,1674.204346 
	C2254.031738,1676.193481 2253.844482,1678.178101 2253.704102,1680.164795 
	C2243.135986,1635.221069 2222.965820,1596.401245 2188.185791,1562.918457 
	C2187.409668,1576.167603 2186.424072,1587.026611 2186.267578,1597.897583 
	C2186.173096,1604.484497 2187.307617,1611.095581 2187.990479,1617.685425 
	C2188.776123,1625.272095 2189.221680,1632.929932 2190.596680,1640.413452 
	C2197.682129,1678.989380 2213.502197,1713.193237 2242.065918,1740.751099 
	C2245.648682,1744.207764 2246.690430,1747.848633 2245.491699,1752.398193 
	C2239.657471,1774.541748 2234.010254,1796.737793 2227.842529,1818.788330 
	C2225.636230,1826.676147 2222.154053,1834.207153 2219.254150,1841.901001 
	C2219.779541,1814.959106 2217.214844,1788.992798 2208.161621,1763.879028 
	C2199.127441,1738.816650 2186.479980,1716.008545 2167.238770,1696.418091 
	C2160.981445,1718.935059 2161.718262,1740.590698 2161.871094,1762.189697 
	C2162.118896,1797.169067 2172.082520,1828.972168 2193.370361,1856.955200 
	C2197.364014,1862.205200 2201.763184,1867.147217 2206.307861,1872.632812 
	C2192.508057,1902.796997 2175.704590,1930.973511 2154.646240,1956.968384 
	C2171.617920,1906.645874 2165.503418,1858.924072 2141.417236,1811.300903 
	C2139.446533,1814.306519 2138.215820,1815.835693 2137.354736,1817.550537 
	C2127.141113,1837.889771 2119.632812,1859.271240 2116.423584,1881.738281 
	C2114.418945,1895.773926 2113.796387,1910.286987 2114.862061,1924.411743 
	C2116.270752,1943.087402 2122.450195,1960.802368 2131.780273,1977.180420 
	C2134.292236,1981.590210 2134.379639,1984.954590 2130.588867,1988.659546 
	C2115.385742,2003.518433 2100.472656,2018.676514 2085.139893,2033.399170 
	C2081.427002,2036.964600 2076.522217,2039.288818 2072.019775,2042.028442 
	C2072.019775,2042.028442 2071.864258,2041.883545 2072.036377,2040.411377 
	C2073.358643,2037.005615 2074.458252,2033.492310 2076.040283,2030.211792 
	C2084.290527,2013.105957 2087.195068,1994.744019 2087.720703,1976.107910 
	C2088.395020,1952.196045 2082.389404,1929.423706 2073.363525,1907.420654 
	C2072.837646,1906.138428 2071.398682,1905.230591 2069.599365,1903.310547 
	C2066.062012,1909.369873 2063.017578,1914.446655 2060.110352,1919.600952 
	C2056.699463,1925.648193 2053.408447,1931.762817 2049.739746,1936.016846 
	C2049.702881,1931.352173 2049.634521,1926.687378 2049.634277,1922.022705 
	C2049.628418,1717.416870 2049.611572,1512.811035 2049.679443,1308.205200 
	C2049.683105,1297.701050 2048.263428,1287.523438 2043.273560,1278.300659 
	C2030.999756,1255.615601 2012.227661,1243.668823 1985.907349,1243.677002 
	C1702.325073,1243.765747 1418.742676,1243.731934 1135.160400,1243.731934 
	C1108.834839,1243.731934 1082.506104,1243.505737 1056.186035,1243.887573 
	C1049.321045,1243.987305 1042.160522,1245.044922 1035.690308,1247.273071 
	C1010.298645,1256.017212 994.431519,1279.441895 994.429077,1307.225830 
	C994.412964,1493.503784 994.424683,1679.781616 994.407349,1866.059570 
	C994.406860,1870.717896 994.175293,1875.376099 992.867188,1879.105469 
	C987.599365,1857.275391 981.862305,1835.627319 968.702759,1815.050171 
	C955.601379,1838.142456 949.226013,1861.713745 946.538940,1886.220093 
	C943.825623,1910.967041 948.265564,1935.203857 954.539368,1959.318970 
	C934.088013,1933.534424 917.333008,1905.900513 904.084717,1875.920898 
	C905.969177,1873.606689 907.562988,1871.510010 909.299072,1869.538452 
	C934.263062,1841.189087 946.211792,1807.847290 948.296570,1770.389038 
	C949.052917,1756.797119 948.622437,1743.295654 947.749023,1729.807617 
	C947.119324,1720.081787 945.118591,1710.444702 943.729370,1700.768188 
	C942.843323,1700.684937 941.957275,1700.601807 941.071228,1700.518677 
	C905.746155,1741.625977 888.040955,1789.062866 891.425354,1844.303589 
	C889.771851,1842.851440 888.879028,1841.535889 888.375610,1840.085205 
	C879.112915,1813.389526 871.069397,1786.393066 865.353516,1758.643555 
	C863.581299,1750.040161 865.552429,1744.948975 871.521423,1739.575684 
	C885.072327,1727.377563 894.976013,1712.327515 902.794067,1696.044067 
	C919.729370,1660.771484 923.813965,1622.935425 923.700012,1584.431152 
	C923.684265,1579.105103 921.955933,1573.783936 920.736084,1566.842529 
	C903.403442,1583.704224 890.285400,1601.515869 879.634033,1621.110718 
	C868.870056,1640.912720 862.099976,1662.273804 856.989990,1684.254517 
	C856.199036,1659.404907 855.849915,1634.783813 856.362854,1610.180908 
	C856.582581,1599.639404 857.895508,1588.809204 869.580750,1583.499756 
	C870.722717,1582.980957 871.491821,1581.668579 872.475342,1580.769653 
	C897.200378,1558.174194 912.945862,1529.987427 923.627441,1498.645996 
	C931.273438,1476.211792 935.021118,1452.955566 937.654724,1429.527344 
	C938.202637,1424.653442 939.605896,1419.160034 936.317017,1413.805786 
	C924.423218,1421.810303 915.516235,1431.939819 906.431030,1442.098999 
	C882.610291,1468.735596 867.073669,1499.572021 858.057129,1533.891235 
	C853.646423,1550.679565 852.495728,1567.894897 852.135620,1585.174438 
	C851.961792,1593.513672 852.562134,1601.949219 848.967712,1610.675537 
	C839.307922,1558.145020 797.679443,1512.255493 769.454041,1501.081543 
	C770.271973,1511.236450 771.648987,1520.770020 771.673889,1530.307007 
	C771.717896,1547.145996 775.306091,1563.303101 779.948364,1579.261841 
	C786.628235,1602.224976 797.466736,1622.994385 813.828369,1640.693359 
	C822.248535,1649.802002 831.544434,1657.743164 842.529663,1663.629395 
	C847.071716,1666.063232 850.158691,1668.899780 850.078186,1675.145996 
	C849.937378,1686.064453 850.703674,1697.057251 851.967163,1707.916870 
	C853.919556,1724.697510 856.614990,1741.391724 858.983704,1758.124146 
	C859.379517,1760.920044 859.716553,1763.724243 860.395386,1768.943481 
	C856.835815,1765.436523 854.783325,1763.863770 853.287476,1761.872803 
	C831.431396,1732.784424 802.140686,1714.903564 767.590698,1705.002808 
	C765.333191,1704.355835 762.729004,1704.918579 759.682678,1704.918579 
	C760.372620,1715.328247 764.393433,1723.767456 767.766541,1732.372192 
	C776.108276,1753.652100 787.444946,1773.339600 803.280518,1789.727661 
	C821.832336,1808.927368 843.934326,1822.923096 870.702637,1828.189575 
	C875.628601,1829.158813 878.577271,1831.417847 880.611023,1836.542114 
	C887.966736,1855.074829 896.101257,1873.297729 903.862305,1891.671265 
	C904.620605,1893.466431 904.830872,1895.493042 905.295471,1897.412109 
	C867.603271,1868.566162 826.325134,1858.715332 779.084229,1866.763916 
	C780.863770,1870.122437 781.549072,1872.362183 782.969299,1873.940674 
	C791.383606,1883.291016 799.563416,1892.905884 808.582153,1901.647583 
	C825.876221,1918.410278 846.648682,1929.240601 869.716675,1936.018188 
	C887.657959,1941.289551 905.952759,1940.382080 924.217590,1939.842285 
	C929.528503,1939.685303 932.979797,1941.174438 935.798950,1945.629761 
	C947.390320,1963.947998 960.886658,1980.808960 975.445496,1996.850464 
	C976.794861,1998.337158 977.307800,2000.583130 979.294189,2004.755981 
	C958.615295,1997.482788 939.819214,1993.279297 919.968079,1993.604980 
	C899.945923,1993.933472 880.766785,1996.622803 861.813477,2004.440430 
	C876.557678,2021.709473 905.994202,2037.566162 927.813965,2043.948730 
	C956.853577,2052.443359 986.166321,2052.938721 1015.401245,2045.106445 
	C1021.056702,2043.591187 1024.960938,2044.900146 1029.085938,2048.243896 
	C1034.765381,2052.847900 1040.692871,2057.144775 1046.419434,2061.692139 
	C1052.335449,2066.390381 1058.137939,2071.231445 1064.000000,2076.000000 
	C1064.000000,2076.000000 1064.006470,2075.990234 1062.230225,2076.106689 
M1174.943848,1071.848511 
	C1149.493530,1072.063232 1124.023071,1071.396362 1098.497314,1072.247803 
	C1098.497314,1104.708008 1098.497314,1135.826172 1098.497314,1166.811279 
	C1109.885742,1169.043945 1188.096558,1168.596191 1195.221680,1166.344849 
	C1195.221680,1135.269165 1195.221680,1104.154541 1195.221680,1071.848145 
	C1188.713989,1071.848145 1182.815552,1071.848145 1174.943848,1071.848511 
M1246.128418,1087.160889 
	C1246.314209,1113.941895 1245.732422,1140.740112 1246.487793,1168.151733 
	C1279.691772,1168.117432 1311.459106,1168.237305 1342.987061,1168.073608 
	C1345.234985,1153.094604 1344.539307,1079.237793 1342.323975,1072.524536 
	C1326.489868,1070.801880 1254.106934,1071.496948 1246.128784,1073.699097 
	C1246.128784,1077.358398 1246.128784,1081.285645 1246.128418,1087.160889 
M1545.854492,1109.001221 
	C1546.019409,1128.468018 1545.495361,1147.954956 1546.181030,1167.417725 
	C1579.325073,1167.417725 1611.076416,1167.417725 1642.694092,1167.417725 
	C1644.778564,1155.004150 1644.264038,1079.539917 1642.167603,1072.579590 
	C1610.407471,1072.579590 1578.644653,1072.579590 1545.854126,1072.579590 
	C1545.854126,1084.531616 1545.854126,1095.767090 1545.854492,1109.001221 
M1792.145508,1105.003296 
	C1791.893188,1094.185303 1792.697266,1083.310303 1791.611816,1072.598999 
	C1758.643066,1072.598999 1726.891968,1072.598999 1695.274780,1072.598999 
	C1693.175049,1085.482300 1693.734985,1160.548096 1695.847656,1167.404541 
	C1727.623657,1167.404541 1759.387329,1167.404541 1792.145874,1167.404541 
	C1792.145874,1146.783569 1792.145874,1126.892944 1792.145508,1105.003296 
M1493.871582,1124.999756 
	C1493.871582,1116.339355 1493.976196,1107.677490 1493.842529,1099.019165 
	C1493.706177,1090.174316 1494.506104,1081.256104 1493.257568,1072.680908 
	C1475.126221,1070.617310 1403.635498,1071.447021 1396.832275,1073.670654 
	C1396.832275,1104.804199 1396.832275,1135.945190 1396.832275,1167.432861 
	C1429.293091,1167.432861 1461.045776,1167.432861 1493.871216,1167.432861 
	C1493.871216,1153.493042 1493.871216,1140.246460 1493.871582,1124.999756 
M1908.959961,1168.150146 
	C1916.185181,1168.150146 1923.410400,1168.150146 1931.130127,1168.150146 
	C1931.130127,1135.563721 1931.130127,1104.204468 1931.130127,1072.467285 
	C1898.631836,1072.467285 1866.874146,1072.467285 1834.598877,1072.467285 
	C1834.598877,1104.438965 1834.598877,1135.790405 1834.598877,1168.150513 
	C1859.210327,1168.150513 1883.092285,1168.150513 1908.959961,1168.150146 
z"/>
<path fill="#444659" opacity="1.000000" stroke="none" 
	d="
M994.051514,1880.034424 
	C994.175293,1875.376099 994.406860,1870.717896 994.407349,1866.059570 
	C994.424683,1679.781616 994.412964,1493.503784 994.429077,1307.225830 
	C994.431519,1279.441895 1010.298645,1256.017212 1035.690308,1247.273071 
	C1042.160522,1245.044922 1049.321045,1243.987305 1056.186035,1243.887573 
	C1082.506104,1243.505737 1108.834839,1243.731934 1135.160400,1243.731934 
	C1418.742676,1243.731934 1702.325073,1243.765747 1985.907349,1243.677002 
	C2012.227661,1243.668823 2030.999756,1255.615601 2043.273560,1278.300659 
	C2048.263428,1287.523438 2049.683105,1297.701050 2049.679443,1308.205200 
	C2049.611572,1512.811035 2049.628418,1717.416870 2049.634277,1922.022705 
	C2049.634521,1926.687378 2049.702881,1931.352173 2049.707520,1937.782715 
	C2049.872559,1953.726929 2044.588379,1966.223389 2037.224365,1978.543335 
	C2025.249756,1993.281616 2010.355347,2001.201294 1991.098633,2002.540283 
	C1978.902222,2002.473999 1967.630493,2002.559082 1955.386963,2002.522583 
	C1941.797363,2002.384033 1929.179565,2002.339966 1916.561890,2002.354492 
	C1864.433105,2002.414795 1812.304199,2002.492920 1759.244019,2002.379883 
	C1605.787109,2002.189453 1453.261475,2002.179932 1300.735962,2002.200073 
	C1297.086426,2002.200562 1293.436890,2002.531494 1288.875000,2002.559814 
	C1242.522827,2002.488647 1197.083252,2002.565918 1150.743164,2002.497437 
	C1139.816162,2002.504639 1129.789673,2002.657593 1118.859619,2002.626953 
	C1103.282715,2002.543335 1088.609253,2002.643433 1073.020020,2002.573242 
	C1055.417114,2002.990356 1038.900146,2002.590332 1023.308960,1993.613770 
	C1004.677185,1980.909424 995.911865,1963.377930 994.272217,1941.046387 
	C994.340149,1920.098877 994.195862,1900.066650 994.051514,1880.034424 
M1521.588379,1978.959839 
	C1524.891479,1979.212036 1528.194336,1979.683350 1531.497559,1979.684448 
	C1641.103882,1979.722900 1750.710327,1979.726318 1860.316650,1979.667969 
	C1863.566772,1979.666260 1866.816528,1978.943970 1871.931274,1978.602783 
	C1900.263428,1978.574951 1928.595703,1978.519409 1956.927856,1978.530029 
	C1973.132080,1978.536011 1986.785645,1972.357056 1998.204590,1961.213745 
	C2011.057739,1948.671143 2016.457886,1933.247681 2016.444458,1915.266846 
	C2016.299072,1720.606323 2016.353760,1525.945679 2016.353149,1331.285034 
	C2016.353149,1329.618408 2016.390259,1327.950439 2016.334961,1326.285522 
	C2015.696411,1307.051025 2007.367188,1291.693604 1992.330933,1280.036743 
	C1979.659058,1270.213013 1964.976196,1267.518433 1949.108643,1267.527832 
	C1664.450928,1267.697144 1379.792969,1267.650635 1095.135132,1267.654297 
	C1092.135620,1267.654419 1089.130737,1267.600708 1086.137573,1267.753662 
	C1066.642944,1268.750000 1051.007446,1277.083374 1039.364990,1292.732178 
	C1030.220215,1305.023804 1027.524048,1319.005981 1027.537231,1334.160645 
	C1027.703613,1526.821167 1027.646118,1719.481934 1027.649780,1912.142578 
	C1027.649902,1914.808716 1027.680298,1917.475220 1027.732666,1920.140869 
	C1028.027710,1935.162964 1033.673218,1948.139648 1043.768433,1958.954468 
	C1056.463867,1972.555420 1072.211670,1978.689331 1091.095093,1978.656738 
	C1231.756958,1978.414429 1372.419434,1978.526123 1513.081787,1978.517700 
	C1515.412598,1978.517578 1517.743530,1978.403687 1521.588379,1978.959839 
z"/>
<path fill="#C7CAD9" opacity="1.000000" stroke="none" 
	d="
M1289.787354,2002.708252 
	C1293.436890,2002.531494 1297.086426,2002.200562 1300.735962,2002.200073 
	C1453.261475,2002.179932 1605.787109,2002.189453 1759.307129,2003.040527 
	C1764.594360,2009.271606 1768.444214,2015.093872 1773.252686,2019.971069 
	C1800.509888,2047.618896 1828.012329,2075.024902 1855.378784,2102.565186 
	C1857.930054,2105.132568 1859.931274,2108.250000 1862.505371,2110.790527 
	C1870.679932,2118.858887 1877.189819,2128.742432 1887.899902,2134.834961 
	C1889.332886,2136.439209 1890.657471,2137.395020 1891.982056,2138.351074 
	C1894.675903,2142.371338 1897.369629,2146.391357 1899.182373,2151.427734 
	C1896.638184,2152.506592 1894.974854,2152.624512 1893.311646,2152.624512 
	C1649.820557,2152.632812 1406.329590,2152.635498 1162.838501,2152.601807 
	C1159.873047,2152.601562 1156.907715,2152.131104 1153.942261,2151.880127 
	C1155.901367,2149.023193 1157.666016,2146.005859 1159.862549,2143.344971 
	C1163.764648,2138.617676 1167.928345,2134.106445 1172.704102,2128.726074 
	C1174.906372,2126.632568 1176.387085,2125.318115 1178.203613,2123.422119 
	C1201.473022,2098.451416 1224.388916,2074.045410 1247.347534,2049.679443 
	C1260.307129,2035.925659 1273.373169,2022.271973 1286.288208,2008.476807 
	C1287.792358,2006.870239 1288.637085,2004.646118 1289.787354,2002.708252 
z"/>
<path fill="#8CE9FF" opacity="1.000000" stroke="none" 
	d="
M1892.774170,2138.223633 
	C1890.657471,2137.395020 1889.332886,2136.439209 1888.682861,2134.669434 
	C1910.588745,2127.725830 1932.078125,2122.325684 1952.709961,2112.470459 
	C1950.974609,2108.554688 1949.568970,2105.592285 1948.333862,2102.560303 
	C1942.364136,2087.905518 1938.832031,2072.650635 1940.439453,2056.861816 
	C1942.060669,2040.936523 1946.760132,2025.666870 1953.519165,2011.079102 
	C1954.759033,2008.403320 1955.426880,2005.462524 1956.358643,2002.644043 
	C1967.630493,2002.559082 1978.902222,2002.473999 1991.091797,2003.381836 
	C1992.625366,2010.294678 1993.664917,2016.206177 1993.784180,2022.136108 
	C1994.324829,2049.013672 1988.260498,2074.097656 1972.873535,2096.545166 
	C1971.132446,2099.085205 1969.735596,2101.861084 1967.116699,2106.347900 
	C1971.013306,2105.005615 1972.881226,2104.570557 1974.562622,2103.751709 
	C1998.189087,2092.248047 2021.701050,2080.545410 2043.259155,2065.326904 
	C2051.365234,2059.604248 2051.359619,2059.770508 2047.004761,2050.137939 
	C2039.951294,2034.536255 2035.544434,2018.293091 2036.182373,2001.012939 
	C2036.462646,1993.418213 2037.243896,1985.842041 2037.797607,1978.257446 
	C2044.588379,1966.223389 2049.872559,1953.726929 2049.870605,1938.698364 
	C2053.408447,1931.762817 2056.699463,1925.648193 2060.110352,1919.600952 
	C2063.017578,1914.446655 2066.062012,1909.369873 2069.599365,1903.310547 
	C2071.398682,1905.230591 2072.837646,1906.138428 2073.363525,1907.420654 
	C2082.389404,1929.423706 2088.395020,1952.196045 2087.720703,1976.107910 
	C2087.195068,1994.744019 2084.290527,2013.105957 2076.040283,2030.211792 
	C2074.458252,2033.492310 2073.358643,2037.005615 2071.592773,2041.302979 
	C2071.197754,2042.587646 2071.246338,2042.980591 2071.294922,2043.373779 
	C2071.585205,2042.977173 2071.875244,2042.580566 2072.165283,2042.183960 
	C2076.522217,2039.288818 2081.427002,2036.964600 2085.139893,2033.399170 
	C2100.472656,2018.676514 2115.385742,2003.518433 2130.588867,1988.659546 
	C2134.379639,1984.954590 2134.292236,1981.590210 2131.780273,1977.180420 
	C2122.450195,1960.802368 2116.270752,1943.087402 2114.862061,1924.411743 
	C2113.796387,1910.286987 2114.418945,1895.773926 2116.423584,1881.738281 
	C2119.632812,1859.271240 2127.141113,1837.889771 2137.354736,1817.550537 
	C2138.215820,1815.835693 2139.446533,1814.306519 2141.417236,1811.300903 
	C2165.503418,1858.924072 2171.617920,1906.645874 2154.646240,1956.968384 
	C2175.704590,1930.973511 2192.508057,1902.796997 2206.307861,1872.632812 
	C2201.763184,1867.147217 2197.364014,1862.205200 2193.370361,1856.955200 
	C2172.082520,1828.972168 2162.118896,1797.169067 2161.871094,1762.189697 
	C2161.718262,1740.590698 2160.981445,1718.935059 2167.238770,1696.418091 
	C2186.479980,1716.008545 2199.127441,1738.816650 2208.161621,1763.879028 
	C2217.214844,1788.992798 2219.779541,1814.959106 2219.254150,1841.901001 
	C2222.154053,1834.207153 2225.636230,1826.676147 2227.842529,1818.788330 
	C2234.010254,1796.737793 2239.657471,1774.541748 2245.491699,1752.398193 
	C2246.690430,1747.848633 2245.648682,1744.207764 2242.065918,1740.751099 
	C2213.502197,1713.193237 2197.682129,1678.989380 2190.596680,1640.413452 
	C2189.221680,1632.929932 2188.776123,1625.272095 2187.990479,1617.685425 
	C2187.307617,1611.095581 2186.173096,1604.484497 2186.267578,1597.897583 
	C2186.424072,1587.026611 2187.409668,1576.167603 2188.185791,1562.918457 
	C2222.965820,1596.401245 2243.135986,1635.221069 2253.704102,1680.164795 
	C2253.844482,1678.178101 2254.031738,1676.193481 2254.118408,1674.204346 
	C2255.041992,1653.009644 2254.405762,1631.817627 2253.782715,1610.633545 
	C2253.598145,1604.359863 2252.917969,1598.042358 2251.727295,1591.887573 
	C2251.297363,1589.665039 2249.016602,1587.463745 2247.052002,1585.929077 
	C2233.027100,1574.974731 2221.522461,1561.789917 2211.498779,1547.153320 
	C2194.088379,1521.731323 2184.259521,1493.312866 2178.136963,1463.446167 
	C2174.540527,1445.901123 2171.806152,1428.217163 2171.875732,1408.838867 
	C2174.434082,1410.622681 2176.238037,1411.641968 2177.762695,1412.979614 
	C2201.259766,1433.593140 2221.331055,1457.118408 2235.237793,1485.186646 
	C2246.483643,1507.884155 2254.914062,1531.695312 2256.159668,1557.444336 
	C2256.753174,1569.708740 2257.364502,1581.974854 2258.214844,1594.223022 
	C2258.487305,1598.147461 2259.551758,1602.016968 2260.714111,1608.466797 
	C2271.803467,1559.553101 2297.094238,1523.422363 2339.457764,1496.481445 
	C2339.619629,1505.193604 2340.514893,1511.766724 2339.711182,1518.125000 
	C2337.511230,1535.527588 2335.728516,1553.106323 2331.721191,1570.130615 
	C2324.113037,1602.451660 2307.540283,1629.803345 2281.641357,1650.999023 
	C2276.796631,1654.964233 2271.263428,1658.221436 2265.692383,1661.123047 
	C2261.548340,1663.281372 2260.041992,1666.000488 2260.077393,1670.565308 
	C2260.307617,1700.229614 2256.176025,1729.427490 2250.322021,1758.430420 
	C2249.937256,1760.336670 2250.095459,1762.352539 2250.744873,1764.880249 
	C2263.345459,1748.997192 2276.965576,1734.362427 2293.971191,1723.380981 
	C2310.841797,1712.486572 2328.916992,1704.453979 2348.739990,1700.647827 
	C2352.744873,1714.643066 2329.433594,1761.357422 2310.639648,1782.129028 
	C2289.713135,1805.257324 2264.367188,1820.851685 2233.118896,1826.595703 
	C2223.019287,1849.960938 2212.924805,1873.314941 2201.856689,1898.921143 
	C2210.359619,1892.459839 2216.836426,1886.639160 2224.158203,1882.217407 
	C2232.100830,1877.420898 2240.605957,1873.338989 2249.280518,1870.033325 
	C2257.621826,1866.854736 2266.378418,1864.429199 2275.163574,1862.845947 
	C2284.263184,1861.205811 2293.616943,1860.312134 2302.858643,1860.318848 
	C2311.682861,1860.325195 2320.505615,1861.910889 2330.242432,1862.894531 
	C2329.381592,1865.479370 2329.189453,1867.476807 2328.177979,1868.885864 
	C2303.136230,1903.768555 2270.531006,1927.584473 2227.771729,1935.481689 
	C2213.829102,1938.056763 2199.511230,1939.955933 2185.234375,1936.333496 
	C2181.448730,1935.372803 2178.558838,1936.516846 2175.876709,1940.066162 
	C2161.258301,1959.410400 2146.270752,1978.475830 2131.451172,1997.668457 
	C2130.889893,1998.395386 2130.747070,1999.445435 2129.718262,2002.182861 
	C2169.581055,1986.272705 2208.439697,1986.241333 2249.397461,2001.201904 
	C2244.929199,2005.116455 2241.955322,2007.979736 2238.722900,2010.512573 
	C2213.321533,2030.415405 2185.135010,2042.963257 2152.577393,2046.531372 
	C2131.937012,2048.793213 2112.319580,2046.246582 2092.567871,2041.426025 
	C2090.271484,2040.865479 2086.972168,2040.781982 2085.262207,2042.024536 
	C2071.341309,2052.141602 2057.688232,2062.627197 2042.767944,2073.895996 
	C2066.019531,2070.707031 2088.032959,2070.123047 2109.557861,2076.366455 
	C2131.052490,2082.601074 2150.839355,2092.278076 2168.882324,2107.743164 
	C2160.239258,2112.433594 2152.100098,2115.086426 2143.717041,2116.265869 
	C2127.666260,2118.523682 2111.445801,2121.967285 2095.413086,2121.429443 
	C2067.330078,2120.486816 2040.118774,2113.873779 2015.413574,2099.664551 
	C2008.916870,2095.927979 2003.782959,2095.861572 1997.000366,2099.392090 
	C1964.137695,2116.499756 1929.505615,2129.098145 1892.774170,2138.223633 
M2201.186523,1900.946533 
	C2201.186523,1900.946533 2200.928711,1901.118652 2201.186523,1900.946533 
M2126.864014,2002.978882 
	C2126.864014,2002.978882 2127.135498,2002.833862 2126.864014,2002.978882 
M1965.121460,2106.819824 
	C1965.121460,2106.819824 1965.308838,2107.073242 1965.121460,2106.819824 
z"/>
<path fill="#8CE9FF" opacity="1.000000" stroke="none" 
	d="
M1177.867920,2124.003418 
	C1176.387085,2125.318115 1174.906372,2126.632568 1172.815796,2128.048096 
	C1150.620117,2120.370361 1129.460571,2111.593018 1109.280762,2100.627686 
	C1105.278809,2098.453125 1101.996094,2098.574463 1098.220459,2100.931641 
	C1077.563965,2113.827881 1054.659302,2120.548828 1030.777344,2123.238525 
	C1001.404541,2126.546143 972.443054,2123.773438 944.558594,2113.152832 
	C943.678345,2112.817627 942.992493,2111.972168 941.030396,2110.436523 
	C947.320740,2106.056885 952.753235,2101.947510 958.496582,2098.331543 
	C983.836792,2082.378174 1011.592285,2074.421143 1041.483276,2074.232910 
	C1048.394775,2074.189453 1055.314331,2075.447510 1063.223267,2076.373535 
	C1064.438721,2076.725342 1064.661255,2076.810059 1064.883667,2076.895020 
	C1064.585815,2076.599854 1064.288086,2076.304932 1063.990234,2076.009766 
	C1058.137939,2071.231445 1052.335449,2066.390381 1046.419434,2061.692139 
	C1040.692871,2057.144775 1034.765381,2052.847900 1029.085938,2048.243896 
	C1024.960938,2044.900146 1021.056702,2043.591187 1015.401245,2045.106445 
	C986.166321,2052.938721 956.853577,2052.443359 927.813965,2043.948730 
	C905.994202,2037.566162 876.557678,2021.709473 861.813477,2004.440430 
	C880.766785,1996.622803 899.945923,1993.933472 919.968079,1993.604980 
	C939.819214,1993.279297 958.615295,1997.482788 979.294189,2004.755981 
	C977.307800,2000.583130 976.794861,1998.337158 975.445496,1996.850464 
	C960.886658,1980.808960 947.390320,1963.947998 935.798950,1945.629761 
	C932.979797,1941.174438 929.528503,1939.685303 924.217590,1939.842285 
	C905.952759,1940.382080 887.657959,1941.289551 869.716675,1936.018188 
	C846.648682,1929.240601 825.876221,1918.410278 808.582153,1901.647583 
	C799.563416,1892.905884 791.383606,1883.291016 782.969299,1873.940674 
	C781.549072,1872.362183 780.863770,1870.122437 779.084229,1866.763916 
	C826.325134,1858.715332 867.603271,1868.566162 905.295471,1897.412109 
	C904.830872,1895.493042 904.620605,1893.466431 903.862305,1891.671265 
	C896.101257,1873.297729 887.966736,1855.074829 880.611023,1836.542114 
	C878.577271,1831.417847 875.628601,1829.158813 870.702637,1828.189575 
	C843.934326,1822.923096 821.832336,1808.927368 803.280518,1789.727661 
	C787.444946,1773.339600 776.108276,1753.652100 767.766541,1732.372192 
	C764.393433,1723.767456 760.372620,1715.328247 759.682678,1704.918579 
	C762.729004,1704.918579 765.333191,1704.355835 767.590698,1705.002808 
	C802.140686,1714.903564 831.431396,1732.784424 853.287476,1761.872803 
	C854.783325,1763.863770 856.835815,1765.436523 860.395386,1768.943481 
	C859.716553,1763.724243 859.379517,1760.920044 858.983704,1758.124146 
	C856.614990,1741.391724 853.919556,1724.697510 851.967163,1707.916870 
	C850.703674,1697.057251 849.937378,1686.064453 850.078186,1675.145996 
	C850.158691,1668.899780 847.071716,1666.063232 842.529663,1663.629395 
	C831.544434,1657.743164 822.248535,1649.802002 813.828369,1640.693359 
	C797.466736,1622.994385 786.628235,1602.224976 779.948364,1579.261841 
	C775.306091,1563.303101 771.717896,1547.145996 771.673889,1530.307007 
	C771.648987,1520.770020 770.271973,1511.236450 769.454041,1501.081543 
	C797.679443,1512.255493 839.307922,1558.145020 848.967712,1610.675537 
	C852.562134,1601.949219 851.961792,1593.513672 852.135620,1585.174438 
	C852.495728,1567.894897 853.646423,1550.679565 858.057129,1533.891235 
	C867.073669,1499.572021 882.610291,1468.735596 906.431030,1442.098999 
	C915.516235,1431.939819 924.423218,1421.810303 936.317017,1413.805786 
	C939.605896,1419.160034 938.202637,1424.653442 937.654724,1429.527344 
	C935.021118,1452.955566 931.273438,1476.211792 923.627441,1498.645996 
	C912.945862,1529.987427 897.200378,1558.174194 872.475342,1580.769653 
	C871.491821,1581.668579 870.722717,1582.980957 869.580750,1583.499756 
	C857.895508,1588.809204 856.582581,1599.639404 856.362854,1610.180908 
	C855.849915,1634.783813 856.199036,1659.404907 856.989990,1684.254517 
	C862.099976,1662.273804 868.870056,1640.912720 879.634033,1621.110718 
	C890.285400,1601.515869 903.403442,1583.704224 920.736084,1566.842529 
	C921.955933,1573.783936 923.684265,1579.105103 923.700012,1584.431152 
	C923.813965,1622.935425 919.729370,1660.771484 902.794067,1696.044067 
	C894.976013,1712.327515 885.072327,1727.377563 871.521423,1739.575684 
	C865.552429,1744.948975 863.581299,1750.040161 865.353516,1758.643555 
	C871.069397,1786.393066 879.112915,1813.389526 888.375610,1840.085205 
	C888.879028,1841.535889 889.771851,1842.851440 891.425354,1844.303589 
	C888.040955,1789.062866 905.746155,1741.625977 941.071228,1700.518677 
	C941.957275,1700.601807 942.843323,1700.684937 943.729370,1700.768188 
	C945.118591,1710.444702 947.119324,1720.081787 947.749023,1729.807617 
	C948.622437,1743.295654 949.052917,1756.797119 948.296570,1770.389038 
	C946.211792,1807.847290 934.263062,1841.189087 909.299072,1869.538452 
	C907.562988,1871.510010 905.969177,1873.606689 904.084717,1875.920898 
	C917.333008,1905.900513 934.088013,1933.534424 954.539368,1959.318970 
	C948.265564,1935.203857 943.825623,1910.967041 946.538940,1886.220093 
	C949.226013,1861.713745 955.601379,1838.142456 968.702759,1815.050171 
	C981.862305,1835.627319 987.599365,1857.275391 993.459351,1879.569946 
	C994.195862,1900.066650 994.340149,1920.098877 993.686401,1941.499756 
	C989.623596,1955.722778 984.976807,1968.010986 978.338135,1979.545776 
	C974.648682,1985.956299 974.751770,1987.364868 979.872498,1992.577271 
	C992.635559,2005.568726 1005.368042,2018.606445 1018.574768,2031.138916 
	C1024.456665,2036.720581 1031.450562,2041.130615 1038.064819,2046.426270 
	C1038.440918,2046.871460 1038.691895,2046.962891 1038.942871,2047.054321 
	C1038.660522,2046.674683 1038.378296,2046.295044 1038.130371,2045.157471 
	C1036.962158,2041.327148 1035.757812,2038.255615 1034.557617,2035.182495 
	C1029.368164,2021.894775 1024.044800,2008.641968 1023.786255,1994.062622 
	C1038.900146,2002.590332 1055.417114,2002.990356 1073.031982,2003.425537 
	C1074.444214,2025.039795 1067.889526,2043.970947 1059.202148,2062.710205 
	C1062.437134,2065.132080 1064.899658,2067.333496 1067.682495,2068.999756 
	C1084.704712,2079.192383 1101.610596,2089.604736 1118.961670,2099.209717 
	C1126.065674,2103.142334 1134.183838,2105.243164 1141.958008,2108.528809 
	C1142.343384,2108.956055 1142.611450,2109.031494 1142.879395,2109.107178 
	C1142.624268,2108.705811 1142.369141,2108.304688 1142.019043,2107.213379 
	C1141.465698,2105.653809 1141.114258,2104.704102 1140.533569,2103.925781 
	C1117.804688,2073.462891 1111.546265,2039.625488 1119.763184,2002.810547 
	C1129.789673,2002.657593 1139.816162,2002.504639 1150.882080,2003.203003 
	C1154.323853,2009.502319 1156.695190,2014.964233 1159.134888,2020.395508 
	C1165.588745,2034.762939 1169.241699,2049.838379 1169.800781,2065.542969 
	C1170.353760,2081.079346 1165.940186,2095.647217 1160.034790,2109.833984 
	C1159.185669,2111.874268 1158.653687,2114.046387 1157.807373,2116.678711 
	C1164.867676,2119.256592 1171.367798,2121.629883 1177.867920,2124.003418 
M956.951355,1963.297363 
	C956.951355,1963.297363 957.199463,1962.793091 957.199463,1962.793091 
	C957.199463,1962.793091 956.693176,1962.890503 956.951355,1963.297363 
M906.633850,1900.874023 
	C906.633850,1900.874023 907.169128,1901.140259 907.169128,1901.140259 
	C907.169128,1901.140259 907.052673,1900.509155 906.633850,1900.874023 
M980.496643,2004.946899 
	C980.496643,2004.946899 981.087769,2005.197754 981.087769,2005.197754 
	C981.087769,2005.197754 980.946167,2004.628418 980.496643,2004.946899 
M860.765747,1770.941406 
	C860.765747,1770.941406 861.057800,1771.141479 861.057800,1771.141479 
	C861.057800,1771.141479 861.034058,1770.713257 860.765747,1770.941406 
z"/>
<path fill="#464557" opacity="1.000000" stroke="none" 
	d="
M1153.022705,2152.051514 
	C1156.907715,2152.131104 1159.873047,2152.601562 1162.838501,2152.601807 
	C1406.329590,2152.635498 1649.820557,2152.632812 1893.311646,2152.624512 
	C1894.974854,2152.624512 1896.638184,2152.506592 1899.197144,2152.110840 
	C1904.077271,2151.953369 1908.061523,2152.281982 1912.045898,2152.282715 
	C2042.350098,2152.309570 2172.654297,2152.305176 2302.958496,2152.305176 
	C2306.870850,2152.305176 2310.783203,2152.304932 2315.169434,2152.304932 
	C2315.169434,2165.885742 2315.169434,2178.394775 2315.169434,2191.629883 
	C1787.671143,2191.629883 1260.332275,2191.629883 732.323486,2191.629883 
	C732.323486,2178.997314 732.323486,2166.220703 732.323486,2152.222900 
	C872.381653,2152.222900 1012.242371,2152.222900 1153.022705,2152.051514 
z"/>
<path fill="#8CE9FF" opacity="1.000000" stroke="none" 
	d="
M1175.930420,1071.848389 
	C1182.815552,1071.848145 1188.713989,1071.848145 1195.221680,1071.848145 
	C1195.221680,1104.154541 1195.221680,1135.269165 1195.221680,1166.344849 
	C1188.096558,1168.596191 1109.885742,1169.043945 1098.497314,1166.811279 
	C1098.497314,1135.826172 1098.497314,1104.708008 1098.497314,1072.247803 
	C1124.023071,1071.396362 1149.493530,1072.063232 1175.930420,1071.848389 
M1124.138550,1126.849976 
	C1124.297241,1131.691650 1124.455933,1136.533325 1124.639526,1142.134155 
	C1132.681274,1142.134155 1139.604614,1142.134155 1146.527954,1142.134155 
	C1153.382568,1142.134155 1160.237305,1142.134155 1166.793457,1142.134155 
	C1168.889526,1130.250488 1168.559814,1105.812378 1166.436890,1098.574097 
	C1152.712402,1098.574097 1138.962280,1098.574097 1124.138794,1098.574097 
	C1124.138794,1107.802734 1124.138794,1116.352661 1124.138550,1126.849976 
z"/>
<path fill="#8CE9FF" opacity="1.000000" stroke="none" 
	d="
M1246.128662,1086.186768 
	C1246.128784,1081.285645 1246.128784,1077.358398 1246.128784,1073.699097 
	C1254.106934,1071.496948 1326.489868,1070.801880 1342.323975,1072.524536 
	C1344.539307,1079.237793 1345.234985,1153.094604 1342.987061,1168.073608 
	C1311.459106,1168.237305 1279.691772,1168.117432 1246.487793,1168.151733 
	C1245.732422,1140.740112 1246.314209,1113.941895 1246.128662,1086.186768 
M1293.054688,1142.127563 
	C1301.188477,1141.545776 1309.501709,1143.380493 1317.396240,1140.992920 
	C1317.396240,1126.494385 1317.396240,1112.684204 1317.396240,1097.946655 
	C1302.601318,1098.049561 1288.542603,1097.415894 1274.609009,1098.267578 
	C1274.609009,1113.516113 1274.609009,1127.326538 1274.609009,1142.127686 
	C1280.576660,1142.127686 1285.831543,1142.127686 1293.054688,1142.127563 
z"/>
<path fill="#8CE9FF" opacity="1.000000" stroke="none" 
	d="
M1545.854248,1108.001831 
	C1545.854126,1095.767090 1545.854126,1084.531616 1545.854126,1072.579590 
	C1578.644653,1072.579590 1610.407471,1072.579590 1642.167603,1072.579590 
	C1644.264038,1079.539917 1644.778564,1155.004150 1642.694092,1167.417725 
	C1611.076416,1167.417725 1579.325073,1167.417725 1546.181030,1167.417725 
	C1545.495361,1147.954956 1546.019409,1128.468018 1545.854248,1108.001831 
M1589.091187,1097.865723 
	C1583.631958,1098.070557 1578.172729,1098.275269 1572.849854,1098.474976 
	C1572.849854,1113.552856 1572.849854,1127.330811 1572.849854,1142.074707 
	C1587.572388,1142.002563 1601.576416,1142.563599 1615.416260,1141.714722 
	C1615.416260,1126.459595 1615.416260,1112.677979 1615.416260,1097.865479 
	C1606.836182,1097.865479 1598.947998,1097.865479 1589.091187,1097.865723 
z"/>
<path fill="#8CE9FF" opacity="1.000000" stroke="none" 
	d="
M1792.145752,1106.002930 
	C1792.145874,1126.892944 1792.145874,1146.783569 1792.145874,1167.404541 
	C1759.387329,1167.404541 1727.623657,1167.404541 1695.847656,1167.404541 
	C1693.734985,1160.548096 1693.175049,1085.482300 1695.274780,1072.598999 
	C1726.891968,1072.598999 1758.643066,1072.598999 1791.611816,1072.598999 
	C1792.697266,1083.310303 1791.893188,1094.185303 1792.145752,1106.002930 
M1725.617554,1097.993042 
	C1721.287842,1098.629883 1721.929321,1102.036743 1721.901001,1104.909058 
	C1721.819214,1113.207275 1721.820068,1121.506958 1721.886353,1129.805420 
	C1721.917114,1133.647461 1722.175171,1137.487671 1722.334473,1141.437988 
	C1737.256470,1141.437988 1751.010376,1141.437988 1765.832886,1141.437988 
	C1765.722046,1126.702759 1766.202881,1112.669800 1765.522461,1097.887573 
	C1751.985962,1097.887573 1739.744751,1097.887573 1725.617554,1097.993042 
z"/>
<path fill="#8CE9FF" opacity="1.000000" stroke="none" 
	d="
M1493.871338,1125.999756 
	C1493.871216,1140.246460 1493.871216,1153.493042 1493.871216,1167.432861 
	C1461.045776,1167.432861 1429.293091,1167.432861 1396.832275,1167.432861 
	C1396.832275,1135.945190 1396.832275,1104.804199 1396.832275,1073.670654 
	C1403.635498,1071.447021 1475.126221,1070.617310 1493.257568,1072.680908 
	C1494.506104,1081.256104 1493.706177,1090.174316 1493.842529,1099.019165 
	C1493.976196,1107.677490 1493.871582,1116.339355 1493.871338,1125.999756 
M1454.793213,1097.863281 
	C1444.266968,1097.863281 1433.740845,1097.863281 1422.315063,1097.863281 
	C1422.155884,1113.332397 1421.784668,1127.392456 1422.550049,1142.136597 
	C1431.143677,1142.136597 1438.444824,1142.379639 1445.722412,1142.067627 
	C1452.864258,1141.761353 1460.203003,1143.527832 1467.159668,1140.820679 
	C1467.159668,1126.524048 1467.159668,1112.715820 1467.159668,1097.863037 
	C1463.213501,1097.863037 1459.967407,1097.863037 1454.793213,1097.863281 
z"/>
<path fill="#8BE9FF" opacity="1.000000" stroke="none" 
	d="
M1907.967163,1168.150391 
	C1883.092285,1168.150513 1859.210327,1168.150513 1834.598877,1168.150513 
	C1834.598877,1135.790405 1834.598877,1104.438965 1834.598877,1072.467285 
	C1866.874146,1072.467285 1898.631836,1072.467285 1931.130127,1072.467285 
	C1931.130127,1104.204468 1931.130127,1135.563721 1931.130127,1168.150146 
	C1923.410400,1168.150146 1916.185181,1168.150146 1907.967163,1168.150391 
M1886.935303,1142.140381 
	C1893.067383,1141.974854 1899.199463,1141.809204 1905.095459,1141.649902 
	C1905.095459,1126.366821 1905.095459,1112.556030 1905.095459,1098.655762 
	C1889.886475,1098.655762 1875.464233,1098.655762 1860.742065,1098.655762 
	C1860.742065,1113.262451 1860.742065,1127.067139 1860.742065,1140.531128 
	C1861.914429,1141.178345 1862.470093,1141.746094 1863.039062,1141.759521 
	C1870.348022,1141.932861 1877.659058,1142.026733 1886.935303,1142.140381 
z"/>
<path fill="#21B1E0" opacity="1.000000" stroke="none" 
	d="
M1520.074341,1978.342896 
	C1517.743530,1978.403687 1515.412598,1978.517578 1513.081787,1978.517700 
	C1372.419434,1978.526123 1231.756958,1978.414429 1091.095093,1978.656738 
	C1072.211670,1978.689331 1056.463867,1972.555420 1043.768433,1958.954468 
	C1033.673218,1948.139648 1028.027710,1935.162964 1027.732666,1920.140869 
	C1027.680298,1917.475220 1027.649902,1914.808716 1027.649780,1912.142578 
	C1027.646118,1719.481934 1027.703613,1526.821167 1027.537231,1334.160645 
	C1027.524048,1319.005981 1030.220215,1305.023804 1039.364990,1292.732178 
	C1051.007446,1277.083374 1066.642944,1268.750000 1086.137573,1267.753662 
	C1089.130737,1267.600708 1092.135620,1267.654419 1095.135132,1267.654297 
	C1379.792969,1267.650635 1664.450928,1267.697144 1949.108643,1267.527832 
	C1964.976196,1267.518433 1979.659058,1270.213013 1992.330933,1280.036743 
	C2007.367188,1291.693604 2015.696411,1307.051025 2016.334961,1326.285522 
	C2016.390259,1327.950439 2016.353149,1329.618408 2016.353149,1331.285034 
	C2016.353760,1525.945679 2016.299072,1720.606323 2016.444458,1915.266846 
	C2016.457886,1933.247681 2011.057739,1948.671143 1998.204590,1961.213745 
	C1986.785645,1972.357056 1973.132080,1978.536011 1956.927856,1978.530029 
	C1928.595703,1978.519409 1900.263428,1978.574951 1870.929077,1977.807739 
	C1868.299561,1973.376587 1866.813965,1969.669067 1865.024048,1966.114868 
	C1824.435425,1885.517334 1783.729248,1804.978882 1743.223755,1724.339600 
	C1708.688721,1655.586426 1674.394897,1586.712158 1639.916382,1517.930542 
	C1638.174316,1514.455200 1635.690796,1511.351440 1633.085815,1507.522461 
	C1623.861938,1472.234131 1602.630249,1446.946411 1571.714355,1430.250732 
	C1535.191772,1410.527222 1496.397949,1409.000122 1457.441650,1421.787842 
	C1424.263550,1432.678711 1399.617432,1453.926025 1385.748047,1486.793335 
	C1376.818970,1507.952759 1372.788818,1530.042847 1371.190552,1552.778687 
	C1370.806519,1558.240601 1373.522583,1559.839233 1378.125488,1561.083008 
	C1390.506714,1597.264526 1402.858643,1632.694458 1415.043945,1668.181641 
	C1427.340332,1703.992188 1439.351562,1739.901123 1451.750122,1775.675903 
	C1455.309937,1785.947021 1459.778809,1795.903320 1463.968994,1806.861572 
	C1463.385498,1820.789429 1468.218628,1831.941406 1476.006104,1842.861816 
	C1476.417358,1845.237427 1476.669678,1846.878418 1477.193604,1848.427856 
	C1490.436279,1887.591309 1503.736328,1926.735474 1516.929688,1965.915527 
	C1518.289185,1969.953125 1519.040771,1974.195557 1520.074341,1978.342896 
z"/>
<path fill="#19A1CC" opacity="1.000000" stroke="none" 
	d="
M1520.831299,1978.651367 
	C1519.040771,1974.195557 1518.289185,1969.953125 1516.929688,1965.915527 
	C1503.736328,1926.735474 1490.436279,1887.591309 1477.193604,1848.427856 
	C1476.669678,1846.878418 1476.417358,1845.237427 1476.620117,1843.133057 
	C1478.674194,1843.969849 1480.076416,1845.400391 1481.629761,1846.641968 
	C1497.858154,1859.611816 1520.364502,1860.483765 1537.360474,1848.836548 
	C1554.359375,1837.187256 1561.802368,1815.691650 1555.630859,1796.071045 
	C1549.439819,1776.389038 1531.475830,1763.560303 1510.299438,1763.698242 
	C1489.353760,1763.834717 1471.834839,1777.100708 1465.991455,1797.303589 
	C1465.161743,1800.171997 1464.545776,1803.102295 1463.830811,1806.003906 
	C1459.778809,1795.903320 1455.309937,1785.947021 1451.750122,1775.675903 
	C1439.351562,1739.901123 1427.340332,1703.992188 1415.043945,1668.181641 
	C1402.858643,1632.694458 1390.506714,1597.264526 1379.019287,1560.943359 
	C1402.736328,1561.319580 1425.659912,1562.597290 1448.589111,1563.766724 
	C1452.052979,1563.943604 1455.542358,1563.617432 1457.409912,1563.567261 
	C1460.565186,1550.050171 1462.279175,1537.780273 1466.353027,1526.351685 
	C1473.346436,1506.733032 1491.848267,1495.304932 1512.332764,1496.163940 
	C1529.760010,1496.894653 1542.209473,1508.532349 1544.325073,1525.873291 
	C1546.891846,1546.910278 1541.203491,1565.500732 1527.397461,1581.398804 
	C1520.427002,1589.425415 1512.581177,1596.687378 1505.223633,1604.383545 
	C1498.560425,1611.353516 1491.809204,1618.257812 1485.483032,1625.527100 
	C1477.109741,1635.148560 1473.041016,1646.637939 1472.280029,1659.308350 
	C1471.641724,1669.937744 1470.956909,1680.567993 1470.582642,1691.208130 
	C1470.389282,1696.707764 1470.825684,1702.229492 1471.001343,1708.600586 
	C1495.617920,1708.189087 1519.058350,1709.168457 1543.048096,1707.992188 
	C1543.361450,1702.080566 1543.732422,1697.149780 1543.863525,1692.212524 
	C1544.224731,1678.604614 1548.721802,1666.873413 1559.035889,1657.625488 
	C1564.237793,1652.961182 1569.405884,1648.249634 1574.406494,1643.372314 
	C1586.547119,1631.531006 1599.129883,1620.078735 1610.515381,1607.543945 
	C1624.010376,1592.686401 1631.752808,1574.908325 1634.557617,1554.776001 
	C1636.748779,1539.047729 1635.637085,1523.601807 1633.552490,1508.074707 
	C1635.690796,1511.351440 1638.174316,1514.455200 1639.916382,1517.930542 
	C1674.394897,1586.712158 1708.688721,1655.586426 1743.223755,1724.339600 
	C1783.729248,1804.978882 1824.435425,1885.517334 1865.024048,1966.114868 
	C1866.813965,1969.669067 1868.299561,1973.376587 1869.996704,1977.785156 
	C1866.816528,1978.943970 1863.566772,1979.666260 1860.316650,1979.667969 
	C1750.710327,1979.726318 1641.103882,1979.722900 1531.497559,1979.684448 
	C1528.194336,1979.683350 1524.891479,1979.212036 1520.831299,1978.651367 
z"/>
<path fill="#FEFFFF" opacity="1.000000" stroke="none" 
	d="
M1955.386841,2002.522583 
	C1955.426880,2005.462524 1954.759033,2008.403320 1953.519165,2011.079102 
	C1946.760132,2025.666870 1942.060669,2040.936523 1940.439453,2056.861816 
	C1938.832031,2072.650635 1942.364136,2087.905518 1948.333862,2102.560303 
	C1949.568970,2105.592285 1950.974609,2108.554688 1952.709961,2112.470459 
	C1932.078125,2122.325684 1910.588745,2127.725830 1888.574463,2134.020996 
	C1877.189819,2128.742432 1870.679932,2118.858887 1862.505371,2110.790527 
	C1859.931274,2108.250000 1857.930054,2105.132568 1855.378784,2102.565186 
	C1828.012329,2075.024902 1800.509888,2047.618896 1773.252686,2019.971069 
	C1768.444214,2015.093872 1764.594360,2009.271606 1760.238525,2003.225098 
	C1812.304199,2002.492920 1864.433105,2002.414795 1916.561890,2002.354492 
	C1929.179565,2002.339966 1941.797363,2002.384033 1955.386841,2002.522583 
z"/>
<path fill="#FEFFFF" opacity="1.000000" stroke="none" 
	d="
M1178.203613,2123.422119 
	C1171.367798,2121.629883 1164.867676,2119.256592 1157.807373,2116.678711 
	C1158.653687,2114.046387 1159.185669,2111.874268 1160.034790,2109.833984 
	C1165.940186,2095.647217 1170.353760,2081.079346 1169.800781,2065.542969 
	C1169.241699,2049.838379 1165.588745,2034.762939 1159.134888,2020.395508 
	C1156.695190,2014.964233 1154.323853,2009.502319 1151.782471,2003.348755 
	C1197.083252,2002.565918 1242.522827,2002.488647 1288.875000,2002.559814 
	C1288.637085,2004.646118 1287.792358,2006.870239 1286.288208,2008.476807 
	C1273.373169,2022.271973 1260.307129,2035.925659 1247.347534,2049.679443 
	C1224.388916,2074.045410 1201.473022,2098.451416 1178.203613,2123.422119 
z"/>
<path fill="#FDFEFF" opacity="1.000000" stroke="none" 
	d="
M2037.224365,1978.543335 
	C2037.243896,1985.842041 2036.462646,1993.418213 2036.182373,2001.012939 
	C2035.544434,2018.293091 2039.951294,2034.536255 2047.004761,2050.137939 
	C2051.359619,2059.770508 2051.365234,2059.604248 2043.259155,2065.326904 
	C2021.701050,2080.545410 1998.189087,2092.248047 1974.562622,2103.751709 
	C1972.881226,2104.570557 1971.013306,2105.005615 1967.116699,2106.347900 
	C1969.735596,2101.861084 1971.132446,2099.085205 1972.873535,2096.545166 
	C1988.260498,2074.097656 1994.324829,2049.013672 1993.784180,2022.136108 
	C1993.664917,2016.206177 1992.625366,2010.294678 1992.016479,2003.533203 
	C2010.355347,2001.201294 2025.249756,1993.281616 2037.224365,1978.543335 
z"/>
<path fill="#FCFEFE" opacity="1.000000" stroke="none" 
	d="
M1118.859619,2002.626953 
	C1111.546265,2039.625488 1117.804688,2073.462891 1140.533569,2103.925781 
	C1141.114258,2104.704102 1141.465698,2105.653809 1141.948242,2107.279541 
	C1141.972290,2108.035645 1141.840576,2108.177490 1141.840576,2108.177490 
	C1134.183838,2105.243164 1126.065674,2103.142334 1118.961670,2099.209717 
	C1101.610596,2089.604736 1084.704712,2079.192383 1067.682495,2068.999756 
	C1064.899658,2067.333496 1062.437134,2065.132080 1059.202148,2062.710205 
	C1067.889526,2043.970947 1074.444214,2025.039795 1073.947632,2003.595703 
	C1088.609253,2002.643433 1103.282715,2002.543335 1118.859619,2002.626953 
z"/>
<path fill="#FBFDFE" opacity="1.000000" stroke="none" 
	d="
M1023.308960,1993.613770 
	C1024.044800,2008.641968 1029.368164,2021.894775 1034.557617,2035.182495 
	C1035.757812,2038.255615 1036.962158,2041.327148 1038.089111,2045.194580 
	C1038.013794,2045.989868 1037.939697,2046.072388 1037.939697,2046.072388 
	C1031.450562,2041.130615 1024.456665,2036.720581 1018.574768,2031.138916 
	C1005.368042,2018.606445 992.635559,2005.568726 979.872498,1992.577271 
	C974.751770,1987.364868 974.648682,1985.956299 978.338135,1979.545776 
	C984.976807,1968.010986 989.623596,1955.722778 993.474243,1942.415039 
	C995.911865,1963.377930 1004.677185,1980.909424 1023.308960,1993.613770 
z"/>
<path fill="#FFFFFF" opacity="1.000000" stroke="none" 
	d="
M2201.057617,1901.032593 
	C2200.928711,1901.118652 2201.186523,1900.946533 2201.057617,1901.032593 
z"/>
<path fill="#FFFFFF" opacity="1.000000" stroke="none" 
	d="
M2126.999756,2002.906372 
	C2127.135498,2002.833862 2126.864014,2002.978882 2126.999756,2002.906372 
z"/>
<path fill="#FFFFFF" opacity="1.000000" stroke="none" 
	d="
M2072.092529,2042.106201 
	C2071.875244,2042.580566 2071.585205,2042.977173 2071.294922,2043.373779 
	C2071.246338,2042.980591 2071.197754,2042.587646 2071.506592,2042.039062 
	C2071.864258,2041.883545 2072.019775,2042.028442 2072.092529,2042.106201 
z"/>
<path fill="#FDFEFF" opacity="1.000000" stroke="none" 
	d="
M1965.215088,2106.946533 
	C1965.308838,2107.073242 1965.121460,2106.819824 1965.215088,2106.946533 
z"/>
<path fill="#FFFFFF" opacity="1.000000" stroke="none" 
	d="
M956.822266,1963.093994 
	C956.693176,1962.890503 957.199463,1962.793091 957.199463,1962.793091 
	C957.199463,1962.793091 956.951355,1963.297363 956.822266,1963.093994 
z"/>
<path fill="#FFFFFF" opacity="1.000000" stroke="none" 
	d="
M906.843262,1900.691650 
	C907.052673,1900.509155 907.169128,1901.140259 907.169128,1901.140259 
	C907.169128,1901.140259 906.633850,1900.874023 906.843262,1900.691650 
z"/>
<path fill="#FFFFFF" opacity="1.000000" stroke="none" 
	d="
M980.721436,2004.787598 
	C980.946167,2004.628418 981.087769,2005.197754 981.087769,2005.197754 
	C981.087769,2005.197754 980.496643,2004.946899 980.721436,2004.787598 
z"/>
<path fill="#FBFDFE" opacity="1.000000" stroke="none" 
	d="
M1038.054932,2045.952637 
	C1038.378296,2046.295044 1038.660522,2046.674683 1038.942871,2047.054321 
	C1038.691895,2046.962891 1038.440918,2046.871460 1038.064819,2046.426270 
	C1037.939697,2046.072388 1038.013794,2045.989868 1038.054932,2045.952637 
z"/>
<path fill="#FFFFFF" opacity="1.000000" stroke="none" 
	d="
M860.899902,1770.827393 
	C861.034058,1770.713257 861.057800,1771.141479 861.057800,1771.141479 
	C861.057800,1771.141479 860.765747,1770.941406 860.899902,1770.827393 
z"/>
<path fill="#FFFFFF" opacity="1.000000" stroke="none" 
	d="
M1063.995117,2076.004883 
	C1064.288086,2076.304932 1064.585815,2076.599854 1064.883667,2076.895020 
	C1064.661255,2076.810059 1064.438721,2076.725342 1064.111328,2076.315430 
	C1064.006470,2075.990234 1064.000000,2076.000000 1063.995117,2076.004883 
z"/>
<path fill="#FCFEFE" opacity="1.000000" stroke="none" 
	d="
M1142.043213,2107.969482 
	C1142.369141,2108.304688 1142.624268,2108.705811 1142.879395,2109.107178 
	C1142.611450,2109.031494 1142.343384,2108.956055 1141.958008,2108.528809 
	C1141.840576,2108.177490 1141.972290,2108.035645 1142.043213,2107.969482 
z"/>
<path fill="#FEFFFF" opacity="1.000000" stroke="none" 
	d="
M1124.138672,1125.876221 
	C1124.138794,1116.352661 1124.138794,1107.802734 1124.138794,1098.574097 
	C1138.962280,1098.574097 1152.712402,1098.574097 1166.436890,1098.574097 
	C1168.559814,1105.812378 1168.889526,1130.250488 1166.793457,1142.134155 
	C1160.237305,1142.134155 1153.382568,1142.134155 1146.527954,1142.134155 
	C1139.604614,1142.134155 1132.681274,1142.134155 1124.639526,1142.134155 
	C1124.455933,1136.533325 1124.297241,1131.691650 1124.138672,1125.876221 
z"/>
<path fill="#FFFFFF" opacity="1.000000" stroke="none" 
	d="
M1292.070557,1142.127686 
	C1285.831543,1142.127686 1280.576660,1142.127686 1274.609009,1142.127686 
	C1274.609009,1127.326538 1274.609009,1113.516113 1274.609009,1098.267578 
	C1288.542603,1097.415894 1302.601318,1098.049561 1317.396240,1097.946655 
	C1317.396240,1112.684204 1317.396240,1126.494385 1317.396240,1140.992920 
	C1309.501709,1143.380493 1301.188477,1141.545776 1292.070557,1142.127686 
z"/>
<path fill="#FEFFFF" opacity="1.000000" stroke="none" 
	d="
M1590.075562,1097.865601 
	C1598.947998,1097.865479 1606.836182,1097.865479 1615.416260,1097.865479 
	C1615.416260,1112.677979 1615.416260,1126.459595 1615.416260,1141.714722 
	C1601.576416,1142.563599 1587.572388,1142.002563 1572.849854,1142.074707 
	C1572.849854,1127.330811 1572.849854,1113.552856 1572.849854,1098.474976 
	C1578.172729,1098.275269 1583.631958,1098.070557 1590.075562,1097.865601 
z"/>
<path fill="#FEFFFF" opacity="1.000000" stroke="none" 
	d="
M1726.560547,1097.940308 
	C1739.744751,1097.887573 1751.985962,1097.887573 1765.522461,1097.887573 
	C1766.202881,1112.669800 1765.722046,1126.702759 1765.832886,1141.437988 
	C1751.010376,1141.437988 1737.256470,1141.437988 1722.334473,1141.437988 
	C1722.175171,1137.487671 1721.917114,1133.647461 1721.886353,1129.805420 
	C1721.820068,1121.506958 1721.819214,1113.207275 1721.901001,1104.909058 
	C1721.929321,1102.036743 1721.287842,1098.629883 1726.560547,1097.940308 
z"/>
<path fill="#FCFFFF" opacity="1.000000" stroke="none" 
	d="
M1455.757202,1097.863159 
	C1459.967407,1097.863037 1463.213501,1097.863037 1467.159668,1097.863037 
	C1467.159668,1112.715820 1467.159668,1126.524048 1467.159668,1140.820679 
	C1460.203003,1143.527832 1452.864258,1141.761353 1445.722412,1142.067627 
	C1438.444824,1142.379639 1431.143677,1142.136597 1422.550049,1142.136597 
	C1421.784668,1127.392456 1422.155884,1113.332397 1422.315063,1097.863281 
	C1433.740845,1097.863281 1444.266968,1097.863281 1455.757202,1097.863159 
z"/>
<path fill="#FCFFFF" opacity="1.000000" stroke="none" 
	d="
M1885.952393,1142.140625 
	C1877.659058,1142.026733 1870.348022,1141.932861 1863.039062,1141.759521 
	C1862.470093,1141.746094 1861.914429,1141.178345 1860.742065,1140.531128 
	C1860.742065,1127.067139 1860.742065,1113.262451 1860.742065,1098.655762 
	C1875.464233,1098.655762 1889.886475,1098.655762 1905.095459,1098.655762 
	C1905.095459,1112.556030 1905.095459,1126.366821 1905.095459,1141.649902 
	C1899.199463,1141.809204 1893.067383,1141.974854 1885.952393,1142.140625 
z"/>
<path fill="#FDFEFF" opacity="1.000000" stroke="none" 
	d="
M1633.085815,1507.522461 
	C1635.637085,1523.601807 1636.748779,1539.047729 1634.557617,1554.776001 
	C1631.752808,1574.908325 1624.010376,1592.686401 1610.515381,1607.543945 
	C1599.129883,1620.078735 1586.547119,1631.531006 1574.406494,1643.372314 
	C1569.405884,1648.249634 1564.237793,1652.961182 1559.035889,1657.625488 
	C1548.721802,1666.873413 1544.224731,1678.604614 1543.863525,1692.212524 
	C1543.732422,1697.149780 1543.361450,1702.080566 1543.048096,1707.992188 
	C1519.058350,1709.168457 1495.617920,1708.189087 1471.001343,1708.600586 
	C1470.825684,1702.229492 1470.389282,1696.707764 1470.582642,1691.208130 
	C1470.956909,1680.567993 1471.641724,1669.937744 1472.280029,1659.308350 
	C1473.041016,1646.637939 1477.109741,1635.148560 1485.483032,1625.527100 
	C1491.809204,1618.257812 1498.560425,1611.353516 1505.223633,1604.383545 
	C1512.581177,1596.687378 1520.427002,1589.425415 1527.397461,1581.398804 
	C1541.203491,1565.500732 1546.891846,1546.910278 1544.325073,1525.873291 
	C1542.209473,1508.532349 1529.760010,1496.894653 1512.332764,1496.163940 
	C1491.848267,1495.304932 1473.346436,1506.733032 1466.353027,1526.351685 
	C1462.279175,1537.780273 1460.565186,1550.050171 1457.409912,1563.567261 
	C1455.542358,1563.617432 1452.052979,1563.943604 1448.589111,1563.766724 
	C1425.659912,1562.597290 1402.736328,1561.319580 1378.916992,1560.216919 
	C1373.522583,1559.839233 1370.806519,1558.240601 1371.190552,1552.778687 
	C1372.788818,1530.042847 1376.818970,1507.952759 1385.748047,1486.793335 
	C1399.617432,1453.926025 1424.263550,1432.678711 1457.441650,1421.787842 
	C1496.397949,1409.000122 1535.191772,1410.527222 1571.714355,1430.250732 
	C1602.630249,1446.946411 1623.861938,1472.234131 1633.085815,1507.522461 
z"/>
<path fill="#FCFEFE" opacity="1.000000" stroke="none" 
	d="
M1463.968994,1806.861572 
	C1464.545776,1803.102295 1465.161743,1800.171997 1465.991455,1797.303589 
	C1471.834839,1777.100708 1489.353760,1763.834717 1510.299438,1763.698242 
	C1531.475830,1763.560303 1549.439819,1776.389038 1555.630859,1796.071045 
	C1561.802368,1815.691650 1554.359375,1837.187256 1537.360474,1848.836548 
	C1520.364502,1860.483765 1497.858154,1859.611816 1481.629761,1846.641968 
	C1480.076416,1845.400391 1478.674194,1843.969849 1476.587769,1842.355835 
	C1468.218628,1831.941406 1463.385498,1820.789429 1463.968994,1806.861572 
z"/>
</svg>